<svg width="100" height="100" viewBox="0 0 100 100" fill="none" xmlns="http://www.w3.org/2000/svg">
<g id="stylelint">
<g id="stylelint_2">
<path id="Vector" fill-rule="evenodd" clip-rule="evenodd" d="M50.6794 97.7945C61.6193 58.4321 61.3027 58.2562 69.2068 30.1961L71.1063 31.3006C72.1405 31.8986 72.9848 31.4061 72.9848 30.2101V16.8326C75.0813 9.4385 76.7275 3.72585 77.2059 2.00573H85.7714L100 15.2743L90.6574 23.4L97.7278 31.0895L51.1473 97.7945C50.9186 98.1709 50.602 98.0864 50.6724 97.7945H50.6794Z" fill="black"/>
<path id="Vector_2" fill-rule="evenodd" clip-rule="evenodd" d="M55.7696 12.9643C56.1917 12.9643 56.5329 13.1965 56.5329 13.492V20.3514C56.5329 20.6328 56.2163 20.872 55.7942 20.872H44.2916C43.8694 20.872 43.5177 20.6363 43.5177 20.3444V13.485C43.5177 13.1965 43.8694 12.9643 44.2916 12.9643H55.7942H55.7696ZM69.9668 5.36626L57.3103 12.7181C57.4581 12.9468 57.546 13.2106 57.546 13.492V20.3514C57.546 20.7032 57.4053 21.0197 57.1591 21.2836L69.9281 28.7058C70.7723 29.2158 71.511 28.8007 71.511 27.7912V6.29139C71.511 5.27831 70.7723 4.86323 69.9281 5.36977L69.9668 5.36626ZM42.4835 20.3514V13.492C42.4835 13.2106 42.5714 12.9468 42.7157 12.7181L30.0592 5.36626C29.1903 4.86323 28.4763 5.27831 28.4763 6.28788V27.7806C28.4763 28.8007 29.1868 29.1877 30.0592 28.6952L42.8458 21.273C42.6172 20.9916 42.48 20.675 42.48 20.3232L42.4835 20.3514Z" fill="black"/>
<path id="Vector_3" fill-rule="evenodd" clip-rule="evenodd" d="M48.8461 97.7946H49.3175C38.3777 58.4323 38.6942 58.2564 30.7936 30.1962L28.8941 31.3008C27.8599 31.8988 27.0122 31.4063 27.0122 30.2103V16.8327C24.9051 9.43514 23.2518 3.7225 22.7593 1.99886H14.2115L0.000244141 15.2709L9.33957 23.3966L2.26912 31.0862L48.8426 97.7806L48.8461 97.7946Z" fill="black"/>
<path id="Vector_4" d="M49.651 35.1877C51.5587 35.1877 53.1053 33.6317 53.1053 31.7123C53.1053 29.7929 51.5587 28.2369 49.651 28.2369C47.7432 28.2369 46.1967 29.7929 46.1967 31.7123C46.1967 33.6317 47.7432 35.1877 49.651 35.1877Z" fill="black"/>
<path id="Vector_5" d="M49.651 55.8607C51.5587 55.8607 53.1053 54.3047 53.1053 52.3853C53.1053 50.4658 51.5587 48.9098 49.651 48.9098C47.7432 48.9098 46.1967 50.4658 46.1967 52.3853C46.1967 54.3047 47.7432 55.8607 49.651 55.8607Z" fill="black"/>
<path id="Vector_6" d="M49.651 76.5337C51.5587 76.5337 53.1053 74.9777 53.1053 73.0583C53.1053 71.1388 51.5587 69.5828 49.651 69.5828C47.7432 69.5828 46.1967 71.1388 46.1967 73.0583C46.1967 74.9777 47.7432 76.5337 49.651 76.5337Z" fill="black"/>
</g>
</g>
</svg>
